<svg width="35" height="37" viewBox="0 0 35 37" fill="none" xmlns="http://www.w3.org/2000/svg">
<path fill-rule="evenodd" clip-rule="evenodd" d="M31.0575 5.99068C31.0575 5.24635 30.4541 4.64294 29.7097 4.64294H29.0359C28.2915 4.64294 27.6881 5.24635 27.6881 5.99068V12.7378C27.6881 13.309 27.3179 13.8033 26.8249 14.0917C25.3258 14.9685 24.3188 16.5953 24.3188 18.4573V35.641C24.3188 36.3854 24.9223 36.9888 25.6666 36.9888H33.0792C33.8235 36.9888 34.4269 36.3854 34.4269 35.641V18.4573C34.4269 16.5953 33.4199 14.9684 31.9208 14.0916C31.4277 13.8032 31.0575 13.309 31.0575 12.7378V5.99068Z" fill="#B11E2F"/>
<path fill-rule="evenodd" clip-rule="evenodd" d="M18.9276 2.01449C18.9276 1.27015 18.3242 0.666748 17.5799 0.666748H16.906C16.1616 0.666748 15.5582 1.27015 15.5582 2.01449V8.76165C15.5582 9.33284 15.188 9.82707 14.695 10.1155C13.1959 10.9923 12.189 12.6191 12.189 14.4811V31.6648C12.189 32.4092 12.7924 33.0126 13.5367 33.0126H20.9493C21.6936 33.0126 22.297 32.4092 22.297 31.6648V14.4811C22.297 12.6191 21.29 10.9922 19.7909 10.1154C19.2978 9.82702 18.9276 9.33277 18.9276 8.76157V2.01449Z" fill="#B11E2F"/>
<path fill-rule="evenodd" clip-rule="evenodd" d="M6.7982 5.99068C6.7982 5.24635 6.1948 4.64294 5.45046 4.64294H4.77659C4.03225 4.64294 3.42885 5.24635 3.42885 5.99068V12.7378C3.42885 13.309 3.05865 13.8033 2.56561 14.0917C1.06653 14.9685 0.0595703 16.5953 0.0595703 18.4573V35.641C0.0595703 36.3854 0.662973 36.9888 1.40731 36.9888H8.81988C9.56422 36.9888 10.1676 36.3854 10.1676 35.641V18.4573C10.1676 16.5953 9.16062 14.9684 7.66148 14.0916C7.16842 13.8032 6.7982 13.309 6.7982 12.7378V5.99068Z" fill="#B11E2F"/>
</svg>
