<svg width="16" height="49" viewBox="0 0 16 49" fill="none" xmlns="http://www.w3.org/2000/svg">
<mask id="path-1-inside-1" fill="white">
<path fill-rule="evenodd" clip-rule="evenodd" d="M10.2715 2.51563C10.2715 1.41106 9.37605 0.515625 8.27148 0.515625H7.27148C6.16691 0.515625 5.27148 1.41106 5.27148 2.51563V12.528C5.27148 13.3757 4.72211 14.1091 3.99043 14.5371C1.76581 15.8382 0.271484 18.2524 0.271484 21.0156V46.5156C0.271484 47.6202 1.16691 48.5156 2.27148 48.5156H13.2715C14.3761 48.5156 15.2715 47.6202 15.2715 46.5156V21.0156C15.2715 18.2524 13.7772 15.8382 11.5525 14.5371C10.8209 14.1091 10.2715 13.3757 10.2715 12.528V2.51563Z"/>
</mask>
<path d="M11.5525 14.5371L12.0574 13.6739L11.5525 14.5371ZM7.27148 1.51562H8.27148V-0.484375H7.27148V1.51562ZM6.27148 12.528V2.51563H4.27148V12.528H6.27148ZM1.27148 21.0156C1.27148 18.6221 2.56469 16.5294 4.4953 15.4002L3.48556 13.6739C0.966939 15.147 -0.728516 17.8827 -0.728516 21.0156H1.27148ZM1.27148 46.5156V21.0156H-0.728516V46.5156H1.27148ZM2.27148 47.5156C1.7192 47.5156 1.27148 47.0679 1.27148 46.5156H-0.728516C-0.728516 48.1725 0.61463 49.5156 2.27148 49.5156V47.5156ZM13.2715 47.5156H2.27148V49.5156H13.2715V47.5156ZM14.2715 46.5156C14.2715 47.0679 13.8238 47.5156 13.2715 47.5156V49.5156C14.9283 49.5156 16.2715 48.1725 16.2715 46.5156H14.2715ZM14.2715 21.0156V46.5156H16.2715V21.0156H14.2715ZM11.0477 15.4002C12.9783 16.5294 14.2715 18.6221 14.2715 21.0156H16.2715C16.2715 17.8827 14.576 15.147 12.0574 13.6739L11.0477 15.4002ZM9.27148 2.51563V12.528H11.2715V2.51563H9.27148ZM12.0574 13.6739C11.5372 13.3696 11.2715 12.9225 11.2715 12.528H9.27148C9.27148 13.8288 10.1045 14.8486 11.0477 15.4002L12.0574 13.6739ZM4.27148 12.528C4.27148 12.9225 4.00572 13.3696 3.48556 13.6739L4.4953 15.4002C5.43849 14.8486 6.27148 13.8288 6.27148 12.528H4.27148ZM8.27148 1.51562C8.82377 1.51562 9.27148 1.96334 9.27148 2.51563H11.2715C11.2715 0.858771 9.92834 -0.484375 8.27148 -0.484375V1.51562ZM7.27148 -0.484375C5.61463 -0.484375 4.27148 0.858773 4.27148 2.51563H6.27148C6.27148 1.96334 6.7192 1.51562 7.27148 1.51562V-0.484375Z" fill="#333333" mask="url(#path-1-inside-1)"/>
</svg>
