<svg width="224" height="35" viewBox="0 0 224 35" fill="none" xmlns="http://www.w3.org/2000/svg">
<rect width="223" height="34" transform="translate(0.271484 0.515625)" fill="white"/>
<path d="M135.271 33.6919V1.38507C135.271 0.805441 135.536 0.515625 136.064 0.515625H147.752C150.294 0.515625 152.671 0.957976 154.883 1.84268C157.128 2.72738 159.076 3.94766 160.727 5.50351C162.378 7.02886 163.682 8.82877 164.64 10.9032C165.597 12.9472 166.076 15.159 166.076 17.5385C166.076 19.8875 165.581 22.0993 164.59 24.1738C163.633 26.2177 162.312 28.0024 160.628 29.5277C158.977 31.0531 157.029 32.2581 154.784 33.1428C152.539 34.0275 150.129 34.4699 147.554 34.4699H136.064C135.536 34.4699 135.271 34.2106 135.271 33.6919ZM138.094 31.9073H147.702C149.881 31.9073 151.912 31.5259 153.794 30.7633C155.709 29.9701 157.36 28.9176 158.746 27.6058C160.166 26.2635 161.272 24.7229 162.064 22.984C162.857 21.2146 163.253 19.3537 163.253 17.4012C163.253 15.3267 162.824 13.4201 161.965 11.6812C161.14 9.94227 160.017 8.44743 158.598 7.19665C157.178 5.91536 155.511 4.92388 153.596 4.22222C151.714 3.49005 149.7 3.12397 147.554 3.12397H138.094V31.9073Z" fill="#B11E2F"/>
<path d="M185.196 1.11051L199.658 33.5089C199.823 33.8445 199.823 34.1038 199.658 34.2868C199.492 34.4394 199.278 34.5156 199.014 34.5156H197.528C197.198 34.5156 196.95 34.3173 196.785 33.9207L193.269 26.0042H174.301L170.785 33.875C170.62 34.3021 170.372 34.5156 170.042 34.5156H168.506C168.275 34.5156 168.077 34.4394 167.912 34.2868C167.747 34.1038 167.747 33.8445 167.912 33.5089L182.571 1.11051C182.737 0.713921 183.017 0.515625 183.413 0.515625H184.354C184.751 0.515625 185.031 0.713921 185.196 1.11051ZM183.81 4.77134L175.489 23.3958H192.08L183.81 4.77134Z" fill="#B11E2F"/>
<path d="M208.5 19.4604L196.515 1.43083C196.317 1.15627 196.3 0.942723 196.465 0.790187C196.63 0.607146 196.828 0.515625 197.059 0.515625H198.743C198.875 0.515625 198.991 0.546133 199.09 0.607147C199.222 0.637654 199.371 0.759682 199.536 0.973229L209.837 16.8979L220.336 1.01899C220.468 0.805442 220.584 0.668161 220.683 0.607147C220.815 0.546133 220.947 0.515625 221.079 0.515625H222.614C222.845 0.515625 223.027 0.576639 223.159 0.698667C223.324 0.820695 223.307 1.03424 223.109 1.33931L211.323 19.4604V33.6462C211.323 34.1953 211.091 34.4699 210.629 34.4699H209.143C208.879 34.4699 208.698 34.3936 208.599 34.2411C208.533 34.0885 208.5 33.8902 208.5 33.6462V19.4604Z" fill="#B11E2F"/>
<path d="M32.4571 33.9207L25.0239 17.5843L17.6403 33.9207C17.5412 34.1648 17.4091 34.3326 17.2439 34.4241C17.1117 34.4851 16.9796 34.5156 16.8475 34.5156H15.8068C15.6747 34.5156 15.526 34.4851 15.3608 34.4241C15.1956 34.3326 15.0635 34.1648 14.9644 33.9207L0.395371 1.47659C0.230189 1.17152 0.230189 0.942722 0.395371 0.790187C0.593589 0.607146 0.808325 0.515625 1.03958 0.515625H2.57577C2.90613 0.515625 3.1539 0.713921 3.31909 1.11051L16.5006 30.4429L29.4343 1.11051C29.5664 0.866455 29.6986 0.71392 29.8307 0.652907C29.9629 0.561385 30.095 0.515625 30.2272 0.515625H31.7634C31.9946 0.515625 32.1763 0.607146 32.3085 0.790187C32.4406 0.942722 32.4406 1.17152 32.3085 1.47659L26.5601 14.2895L33.9438 30.5345L46.9766 1.11051C47.0757 0.866455 47.1913 0.71392 47.3235 0.652907C47.4556 0.561385 47.5878 0.515625 47.7199 0.515625H49.157C49.3882 0.515625 49.5865 0.607146 49.7516 0.790187C49.9499 0.942722 49.9829 1.17152 49.8507 1.47659L35.1826 33.9207C35.0835 34.1648 34.9514 34.3326 34.7862 34.4241C34.621 34.4851 34.4723 34.5156 34.3402 34.5156H33.2995C33.1674 34.5156 33.0187 34.4851 32.8536 34.4241C32.7214 34.3326 32.5893 34.1648 32.4571 33.9207Z" fill="#333333"/>
<path d="M54.1341 33.6919V1.38507C54.1341 0.835947 54.4479 0.561384 55.0756 0.561384H56.0667C56.6944 0.561384 57.0083 0.835947 57.0083 1.38507V33.6919C57.0083 34.2411 56.6944 34.5156 56.0667 34.5156H55.0756C54.4479 34.5156 54.1341 34.2411 54.1341 33.6919Z" fill="#333333"/>
<path d="M92.8249 29.8023V1.29355C92.8249 0.774935 93.1057 0.515625 93.6674 0.515625H94.8567C95.4183 0.515625 95.6991 0.75968 95.6991 1.24779V33.875C95.6991 34.3021 95.4348 34.5156 94.9062 34.5156H93.6178C93.4196 34.5156 93.2379 34.4699 93.0727 34.3783C92.9406 34.2868 92.8249 34.18 92.7258 34.058L67.7999 4.95439V33.6919C67.7999 34.2411 67.5026 34.5156 66.9079 34.5156H65.8673C65.2726 34.5156 64.9753 34.2411 64.9753 33.6919V1.38507C64.9753 0.835947 65.2396 0.561384 65.7682 0.561384H67.3539C67.5521 0.561384 67.7008 0.637652 67.7999 0.790187L92.8249 29.8023Z" fill="#333333"/>
<path d="M103.206 33.7835V1.29355C103.206 0.805441 103.47 0.561384 103.999 0.561384H128.082C128.644 0.561384 128.925 0.774934 128.925 1.20203V2.43756C128.925 2.92567 128.644 3.16973 128.082 3.16973H106.03V15.4335H123.721C124.349 15.4335 124.663 15.6776 124.663 16.1657V17.3555C124.663 17.8436 124.349 18.0876 123.721 18.0876H106.03V31.9073H128.429C128.991 31.9073 129.271 32.1056 129.271 32.5022V33.875C129.271 34.3021 128.991 34.5156 128.429 34.5156H103.999C103.47 34.5156 103.206 34.2716 103.206 33.7835Z" fill="#333333"/>
</svg>
